<?xml version="1.0" standalone="no"?>
<!DOCTYPE svg PUBLIC "-//W3C//DTD SVG 20010904//EN"
 "http://www.w3.org/TR/2001/REC-SVG-20010904/DTD/svg10.dtd">
<svg version="1.0" xmlns="http://www.w3.org/2000/svg"
 width="198.000000pt" height="54.000000pt" viewBox="0 0 198.000000 54.000000"
 preserveAspectRatio="xMidYMid meet">
<metadata>
Created by potrace 1.16, written by Peter Selinger 2001-2019
</metadata>
<g transform="translate(0.000000,54.000000) scale(0.100000,-0.100000)"
fill="#000000" stroke="none">
<path d="M210 340 l0 -162 32 6 c69 14 128 85 128 156 0 71 -59 142 -128 156
l-32 7 0 -163z"/>
<path d="M700 410 c0 -16 -5 -19 -29 -14 -57 12 -94 -63 -52 -105 14 -14 33
-19 65 -19 l46 1 0 79 c0 63 -3 78 -15 78 -8 0 -15 -9 -15 -20z"/>
<path d="M1024 385 c-10 -25 1 -148 14 -153 7 -2 12 6 12 22 0 23 3 25 29 20
54 -11 91 55 57 101 -17 23 -104 31 -112 10z"/>
<path d="M1341 384 c-35 -25 -24 -93 19 -106 8 -3 25 -1 38 3 12 5 22 5 22 0
0 -16 -28 -32 -52 -29 -12 2 -25 -1 -28 -7 -3 -6 12 -11 35 -13 53 -5 65 14
65 98 l0 66 -39 1 c-21 1 -48 -5 -60 -13z"/>
</g>
</svg>
